<?xml version="1.0" standalone="yes"?>

<svg version="1.1" viewBox="0.0 0.0 960.0 720.0" fill="none" stroke="none" stroke-linecap="square" stroke-miterlimit="10" xmlns="http://www.w3.org/2000/svg" xmlns:xlink="http://www.w3.org/1999/xlink"><clipPath id="p.0"><path d="m0 0l960.0 0l0 720.0l-960.0 0l0 -720.0z" clip-rule="nonzero"></path></clipPath><g clip-path="url(#p.0)"><path fill="#000000" fill-opacity="0.0" d="m0 0l960.0 0l0 720.0l-960.0 0z" fill-rule="nonzero"></path><path fill="#4a86e8" d="m441.12073 667.09186l0 0c0 -6.5404663 4.709839 -11.842529 10.519684 -11.842529l0 0c2.7900085 0 5.4657288 1.2476807 7.4385376 3.468628c1.9728394 2.2208862 3.0811462 5.2330933 3.0811462 8.373901l0 0c0 6.5404663 -4.7098083 11.842529 -10.519684 11.842529l0 0c-5.809845 0 -10.519684 -5.302063 -10.519684 -11.842529z" fill-rule="nonzero"></path><path stroke="#000000" stroke-width="2.0" stroke-linejoin="round" stroke-linecap="butt" d="m441.12073 667.09186l0 0c0 -6.5404663 4.709839 -11.842529 10.519684 -11.842529l0 0c2.7900085 0 5.4657288 1.2476807 7.4385376 3.468628c1.9728394 2.2208862 3.0811462 5.2330933 3.0811462 8.373901l0 0c0 6.5404663 -4.7098083 11.842529 -10.519684 11.842529l0 0c-5.809845 0 -10.519684 -5.302063 -10.519684 -11.842529z" fill-rule="nonzero"></path><path fill="#4a86e8" d="m441.12073 508.24146l0 0c0 -6.540436 4.709839 -11.842499 10.519684 -11.842499l0 0c2.7900085 0 5.4657288 1.2476807 7.4385376 3.4685974c1.9728394 2.2208862 3.0811462 5.2330933 3.0811462 8.373901l0 0c0 6.5404663 -4.7098083 11.842529 -10.519684 11.842529l0 0c-5.809845 0 -10.519684 -5.302063 -10.519684 -11.842529z" fill-rule="nonzero"></path><path stroke="#000000" stroke-width="2.0" stroke-linejoin="round" stroke-linecap="butt" d="m441.12073 508.24146l0 0c0 -6.540436 4.709839 -11.842499 10.519684 -11.842499l0 0c2.7900085 0 5.4657288 1.2476807 7.4385376 3.4685974c1.9728394 2.2208862 3.0811462 5.2330933 3.0811462 8.373901l0 0c0 6.5404663 -4.7098083 11.842529 -10.519684 11.842529l0 0c-5.809845 0 -10.519684 -5.302063 -10.519684 -11.842529z" fill-rule="nonzero"></path><path fill="#4a86e8" d="m598.10236 93.35171l0 0c0 -6.5404434 4.709839 -11.842522 10.519714 -11.842522l0 0c2.789978 0 5.4656982 1.2476883 7.4385376 3.4685974c1.9727783 2.2209015 3.0811157 5.2330933 3.0811157 8.373924l0 0c0 6.5404434 -4.709839 11.842522 -10.519653 11.842522l0 0c-5.8098755 0 -10.519714 -5.3020782 -10.519714 -11.842522z" fill-rule="nonzero"></path><path stroke="#000000" stroke-width="2.0" stroke-linejoin="round" stroke-linecap="butt" d="m598.10236 93.35171l0 0c0 -6.5404434 4.709839 -11.842522 10.519714 -11.842522l0 0c2.789978 0 5.4656982 1.2476883 7.4385376 3.4685974c1.9727783 2.2209015 3.0811157 5.2330933 3.0811157 8.373924l0 0c0 6.5404434 -4.709839 11.842522 -10.519653 11.842522l0 0c-5.8098755 0 -10.519714 -5.3020782 -10.519714 -11.842522z" fill-rule="nonzero"></path><path fill="#4a86e8" d="m441.12073 349.39108l0 0c0 -6.540436 4.709839 -11.842529 10.519684 -11.842529l0 0c2.7900085 0 5.4657288 1.2476807 7.4385376 3.4685974c1.9728394 2.2209167 3.0811462 5.2330933 3.0811462 8.373932l0 0c0 6.540436 -4.7098083 11.842499 -10.519684 11.842499l0 0c-5.809845 0 -10.519684 -5.302063 -10.519684 -11.842499z" fill-rule="nonzero"></path><path stroke="#000000" stroke-width="2.0" stroke-linejoin="round" stroke-linecap="butt" d="m441.12073 349.39108l0 0c0 -6.540436 4.709839 -11.842529 10.519684 -11.842529l0 0c2.7900085 0 5.4657288 1.2476807 7.4385376 3.4685974c1.9728394 2.2209167 3.0811462 5.2330933 3.0811462 8.373932l0 0c0 6.540436 -4.7098083 11.842499 -10.519684 11.842499l0 0c-5.809845 0 -10.519684 -5.302063 -10.519684 -11.842499z" fill-rule="nonzero"></path><path fill="#4a86e8" d="m441.12073 190.54068l0 0c0 -6.540436 4.709839 -11.842514 10.519684 -11.842514l0 0c2.7900085 0 5.4657288 1.2476807 7.4385376 3.4685974c1.9728394 2.2209015 3.0811462 5.2330933 3.0811462 8.373917l0 0c0 6.540451 -4.7098083 11.842529 -10.519684 11.842529l0 0c-5.809845 0 -10.519684 -5.3020782 -10.519684 -11.842529z" fill-rule="nonzero"></path><path stroke="#000000" stroke-width="2.0" stroke-linejoin="round" stroke-linecap="butt" d="m441.12073 190.54068l0 0c0 -6.540436 4.709839 -11.842514 10.519684 -11.842514l0 0c2.7900085 0 5.4657288 1.2476807 7.4385376 3.4685974c1.9728394 2.2209015 3.0811462 5.2330933 3.0811462 8.373917l0 0c0 6.540451 -4.7098083 11.842529 -10.519684 11.842529l0 0c-5.809845 0 -10.519684 -5.3020782 -10.519684 -11.842529z" fill-rule="nonzero"></path><path fill="#4a86e8" d="m441.12073 31.690289l0 0c0 -6.5404434 4.709839 -11.84252 10.519684 -11.84252l0 0c2.7900085 0 5.4657288 1.2476902 7.4385376 3.4685936c1.9728394 2.2209034 3.0811462 5.233095 3.0811462 8.373926l0 0c0 6.5404434 -4.7098083 11.842518 -10.519684 11.842518l0 0c-5.809845 0 -10.519684 -5.3020744 -10.519684 -11.842518z" fill-rule="nonzero"></path><path stroke="#000000" stroke-width="2.0" stroke-linejoin="round" stroke-linecap="butt" d="m441.12073 31.690289l0 0c0 -6.5404434 4.709839 -11.84252 10.519684 -11.84252l0 0c2.7900085 0 5.4657288 1.2476902 7.4385376 3.4685936c1.9728394 2.2209034 3.0811462 5.233095 3.0811462 8.373926l0 0c0 6.5404434 -4.7098083 11.842518 -10.519684 11.842518l0 0c-5.809845 0 -10.519684 -5.3020744 -10.519684 -11.842518z" fill-rule="nonzero"></path><path fill="#4a86e8" d="m598.10236 348.58005l0 0c0 -6.540436 4.709839 -11.842529 10.519714 -11.842529l0 0c2.789978 0 5.4656982 1.2477112 7.4385376 3.4685974c1.9727783 2.2209167 3.0811157 5.2330933 3.0811157 8.373932l0 0c0 6.540436 -4.709839 11.842529 -10.519653 11.842529l0 0c-5.8098755 0 -10.519714 -5.3020935 -10.519714 -11.842529z" fill-rule="nonzero"></path><path stroke="#000000" stroke-width="2.0" stroke-linejoin="round" stroke-linecap="butt" d="m598.10236 348.58005l0 0c0 -6.540436 4.709839 -11.842529 10.519714 -11.842529l0 0c2.789978 0 5.4656982 1.2477112 7.4385376 3.4685974c1.9727783 2.2209167 3.0811157 5.2330933 3.0811157 8.373932l0 0c0 6.540436 -4.709839 11.842529 -10.519653 11.842529l0 0c-5.8098755 0 -10.519714 -5.3020935 -10.519714 -11.842529z" fill-rule="nonzero"></path><path fill="#ff0000" d="m441.12073 536.3544l10.519684 -10.519653l10.519684 10.519653l-5.2598267 0l0 113.82678l-10.519684 0l0 -113.82678z" fill-rule="nonzero"></path><path stroke="#000000" stroke-width="2.0" stroke-linejoin="round" stroke-linecap="butt" d="m441.12073 536.3544l10.519684 -10.519653l10.519684 10.519653l-5.2598267 0l0 113.82678l-10.519684 0l0 -113.82678z" fill-rule="nonzero"></path><path fill="#000000" d="m441.12073 376.82156l10.519684 -10.519684l10.519684 10.519684l-5.2598267 0l0 113.82678l-10.519684 0l0 -113.82678z" fill-rule="nonzero"></path><path stroke="#000000" stroke-width="2.0" stroke-linejoin="round" stroke-linecap="butt" d="m441.12073 376.82156l10.519684 -10.519684l10.519684 10.519684l-5.2598267 0l0 113.82678l-10.519684 0l0 -113.82678z" fill-rule="nonzero"></path><path fill="#000000" d="m441.12073 218.31236l10.519684 -10.519684l10.519684 10.519684l-5.2598267 0l0 113.82677l-10.519684 0l0 -113.82677z" fill-rule="nonzero"></path><path stroke="#000000" stroke-width="2.0" stroke-linejoin="round" stroke-linecap="butt" d="m441.12073 218.31236l10.519684 -10.519684l10.519684 10.519684l-5.2598267 0l0 113.82677l-10.519684 0l0 -113.82677z" fill-rule="nonzero"></path><path fill="#000000" d="m441.12073 59.461967l10.519684 -10.519684l10.519684 10.519684l-5.2598267 0l0 113.826775l-10.519684 0l0 -113.826775z" fill-rule="nonzero"></path><path stroke="#000000" stroke-width="2.0" stroke-linejoin="round" stroke-linecap="butt" d="m441.12073 59.461967l10.519684 -10.519684l10.519684 10.519684l-5.2598267 0l0 113.826775l-10.519684 0l0 -113.826775z" fill-rule="nonzero"></path><path fill="#9900ff" d="m598.09973 120.28871l10.519714 -10.519684l10.519653 10.519684l-5.2598267 0l0 211.87401l-10.519714 0l0 -211.87401z" fill-rule="nonzero"></path><path stroke="#000000" stroke-width="2.0" stroke-linejoin="round" stroke-linecap="butt" d="m598.09973 120.28871l10.519714 -10.519684l10.519653 10.519684l-5.2598267 0l0 211.87401l-10.519714 0l0 -211.87401z" fill-rule="nonzero"></path><path fill="#9900ff" d="m581.7839 340.1229l10.503967 10.519684l-10.535461 10.519714l0.007873535 -5.259857l-113.79529 0l0.01574707 -10.519684l113.79529 0z" fill-rule="nonzero"></path><path stroke="#000000" stroke-width="2.0" stroke-linejoin="round" stroke-linecap="butt" d="m581.7839 340.1229l10.503967 10.519684l-10.535461 10.519714l0.007873535 -5.259857l-113.79529 0l0.01574707 -10.519684l113.79529 0z" fill-rule="nonzero"></path><path fill="#cfe2f3" d="m335.8819 659.19684l0 0c0 -2.1801147 1.7673645 -3.9475098 3.9475098 -3.9475098l11.543304 0l0 0l23.236206 0l50.270355 0c1.046936 0 2.0509949 0.41589355 2.7912903 1.156189c0.7403259 0.7402954 1.1562195 1.7443848 1.1562195 2.7913208l0 9.868774l0 0l0 5.9212646l0 0c0 2.1801758 -1.7673645 3.9475098 -3.9475098 3.9475098l-50.270355 0l-11.617798 2.9606323l-11.618408 -2.9606323l-11.543304 0c-2.1801453 0 -3.9475098 -1.767334 -3.9475098 -3.9475098l0 0l0 -5.9212646l0 0z" fill-rule="nonzero"></path><path stroke="#000000" stroke-width="2.0" stroke-linejoin="round" stroke-linecap="butt" d="m335.8819 659.19684l0 0c0 -2.1801147 1.7673645 -3.9475098 3.9475098 -3.9475098l11.543304 0l0 0l23.236206 0l50.270355 0c1.046936 0 2.0509949 0.41589355 2.7912903 1.156189c0.7403259 0.7402954 1.1562195 1.7443848 1.1562195 2.7913208l0 9.868774l0 0l0 5.9212646l0 0c0 2.1801758 -1.7673645 3.9475098 -3.9475098 3.9475098l-50.270355 0l-11.617798 2.9606323l-11.618408 -2.9606323l-11.543304 0c-2.1801453 0 -3.9475098 -1.767334 -3.9475098 -3.9475098l0 0l0 -5.9212646l0 0z" fill-rule="nonzero"></path><path fill="#000000" d="m351.98572 665.1287l0.84375 0l0 -0.4375q0 -0.71875 0.140625 -1.0625q0.15625 -0.359375 0.5625 -0.578125q0.421875 -0.234375 1.046875 -0.234375q0.65625 0 1.265625 0.203125l-0.203125 1.046875q-0.359375 -0.078125 -0.6875 -0.078125q-0.328125 0 -0.484375 0.15625q-0.140625 0.140625 -0.140625 0.578125l0 0.40625l1.140625 0l0 1.1875l-1.140625 0l0 4.515625l-1.5 0l0 -4.515625l-0.84375 0l0 -1.1875zm4.2204895 -0.78125l0 -1.390625l1.5 0l0 1.390625l-1.5 0zm0 6.484375l0 -5.703125l1.5 0l0 5.703125l-1.5 0zm4.3981323 0l-1.515625 0l0 -5.703125l1.40625 0l0 0.8125q0.359375 -0.578125 0.640625 -0.75q0.296875 -0.1875 0.65625 -0.1875q0.515625 0 1.0 0.28125l-0.46875 1.3125q-0.375 -0.25 -0.703125 -0.25q-0.328125 0 -0.546875 0.1875q-0.21875 0.171875 -0.34375 0.625q-0.125 0.453125 -0.125 1.90625l0 1.765625zm2.1782532 -1.625l1.5 -0.234375q0.109375 0.4375 0.390625 0.671875q0.296875 0.21875 0.828125 0.21875q0.59375 0 0.890625 -0.203125q0.203125 -0.15625 0.203125 -0.40625q0 -0.171875 -0.109375 -0.28125q-0.125 -0.109375 -0.515625 -0.203125q-1.8125 -0.40625 -2.3125 -0.734375q-0.671875 -0.46875 -0.671875 -1.28125q0 -0.75 0.578125 -1.25q0.59375 -0.5 1.828125 -0.5q1.171875 0 1.734375 0.375q0.5625 0.375 0.78125 1.125l-1.421875 0.265625q-0.09375 -0.328125 -0.34375 -0.5q-0.25 -0.1875 -0.734375 -0.1875q-0.59375 0 -0.84375 0.171875q-0.171875 0.109375 -0.171875 0.296875q0 0.171875 0.140625 0.28125q0.203125 0.15625 1.40625 0.4375q1.21875 0.265625 1.6875 0.65625q0.484375 0.40625 0.484375 1.125q0 0.78125 -0.65625 1.34375q-0.65625 0.5625 -1.953125 0.5625q-1.15625 0 -1.84375 -0.46875q-0.671875 -0.46875 -0.875 -1.28125zm9.067108 -4.078125l0 1.203125l-1.03125 0l0 2.296875q0 0.703125 0.03125 0.828125q0.03125 0.109375 0.125 0.1875q0.109375 0.0625 0.265625 0.0625q0.203125 0 0.609375 -0.140625l0.125 1.171875q-0.53125 0.21875 -1.1875 0.21875q-0.421875 0 -0.75 -0.125q-0.328125 -0.140625 -0.484375 -0.359375q-0.140625 -0.21875 -0.203125 -0.59375q-0.046875 -0.265625 -0.046875 -1.0625l0 -2.484375l-0.6875 0l0 -1.203125l0.6875 0l0 -1.140625l1.515625 -0.875l0 2.015625l1.03125 0zm8.868652 1.6875l-1.484375 0.265625q-0.078125 -0.4375 -0.34375 -0.65625q-0.265625 -0.234375 -0.6875 -0.234375q-0.5625 0 -0.90625 0.390625q-0.328125 0.375 -0.328125 1.296875q0 1.015625 0.328125 1.4375q0.34375 0.421875 0.921875 0.421875q0.4375 0 0.703125 -0.25q0.28125 -0.25 0.390625 -0.84375l1.484375 0.25q-0.234375 1.03125 -0.890625 1.546875q-0.65625 0.515625 -1.75 0.515625q-1.265625 0 -2.015625 -0.78125q-0.734375 -0.796875 -0.734375 -2.1875q0 -1.421875 0.75 -2.203125q0.75 -0.78125 2.015625 -0.78125q1.046875 0 1.65625 0.453125q0.625 0.4375 0.890625 1.359375zm0.59835815 1.078125q0 -0.75 0.375 -1.453125q0.375 -0.703125 1.046875 -1.0625q0.6875 -0.375 1.515625 -0.375q1.296875 0 2.125 0.84375q0.828125 0.828125 0.828125 2.109375q0 1.296875 -0.84375 2.15625q-0.828125 0.84375 -2.09375 0.84375q-0.78125 0 -1.5 -0.34375q-0.703125 -0.359375 -1.078125 -1.046875q-0.375 -0.6875 -0.375 -1.671875zm1.546875 0.078125q0 0.859375 0.40625 1.3125q0.40625 0.453125 1.0 0.453125q0.578125 0 0.984375 -0.453125q0.40625 -0.453125 0.40625 -1.3125q0 -0.84375 -0.40625 -1.296875q-0.40625 -0.453125 -0.984375 -0.453125q-0.59375 0 -1.0 0.453125q-0.40625 0.453125 -0.40625 1.296875zm5.1967773 -2.84375l1.390625 0l0 0.78125q0.75 -0.90625 1.78125 -0.90625q0.546875 0 0.953125 0.234375q0.40625 0.21875 0.65625 0.671875q0.375 -0.453125 0.8125 -0.671875q0.4375 -0.234375 0.9375 -0.234375q0.625 0 1.0625 0.25q0.4375 0.25 0.640625 0.75q0.15625 0.359375 0.15625 1.1875l0 3.640625l-1.5 0l0 -3.265625q0 -0.84375 -0.15625 -1.09375q-0.21875 -0.3125 -0.65625 -0.3125q-0.3125 0 -0.59375 0.1875q-0.28125 0.1875 -0.40625 0.5625q-0.109375 0.375 -0.109375 1.1875l0 2.734375l-1.515625 0l0 -3.125q0 -0.828125 -0.078125 -1.0625q-0.078125 -0.25 -0.25 -0.359375q-0.171875 -0.125 -0.46875 -0.125q-0.34375 0 -0.625 0.1875q-0.28125 0.1875 -0.40625 0.546875q-0.109375 0.34375 -0.109375 1.171875l0 2.765625l-1.515625 0l0 -5.703125zm9.475098 0l1.390625 0l0 0.78125q0.75 -0.90625 1.78125 -0.90625q0.546875 0 0.953125 0.234375q0.40625 0.21875 0.65625 0.671875q0.375 -0.453125 0.8125 -0.671875q0.4375 -0.234375 0.9375 -0.234375q0.625 0 1.0625 0.25q0.4375 0.25 0.640625 0.75q0.15625 0.359375 0.15625 1.1875l0 3.640625l-1.5 0l0 -3.265625q0 -0.84375 -0.15625 -1.09375q-0.21875 -0.3125 -0.65625 -0.3125q-0.3125 0 -0.59375 0.1875q-0.28125 0.1875 -0.40625 0.5625q-0.109375 0.375 -0.109375 1.1875l0 2.734375l-1.515625 0l0 -3.125q0 -0.828125 -0.078125 -1.0625q-0.078125 -0.25 -0.25 -0.359375q-0.171875 -0.125 -0.46875 -0.125q-0.34375 0 -0.625 0.1875q-0.28125 0.1875 -0.40625 0.546875q-0.109375 0.34375 -0.109375 1.171875l0 2.765625l-1.515625 0l0 -5.703125zm9.600128 -0.78125l0 -1.390625l1.5 0l0 1.390625l-1.5 0zm0 6.484375l0 -5.703125l1.5 0l0 5.703125l-1.5 0zm5.5700073 -5.703125l0 1.203125l-1.03125 0l0 2.296875q0 0.703125 0.03125 0.828125q0.03125 0.109375 0.125 0.1875q0.109375 0.0625 0.265625 0.0625q0.203125 0 0.609375 -0.140625l0.125 1.171875q-0.53125 0.21875 -1.1875 0.21875q-0.421875 0 -0.75 -0.125q-0.328125 -0.140625 -0.484375 -0.359375q-0.140625 -0.21875 -0.203125 -0.59375q-0.046875 -0.265625 -0.046875 -1.0625l0 -2.484375l-0.6875 0l0 -1.203125l0.6875 0l0 -1.140625l1.515625 -0.875l0 2.015625l1.03125 0z" fill-rule="nonzero"></path><path fill="#cfe2f3" d="m362.47244 500.34647l0 0c0 -2.1801453 1.7673645 -3.9475098 3.9475098 -3.9475098l7.417328 0l0 0l17.047241 0l35.829376 0c1.0469666 0 2.0510254 0.41589355 2.7913208 1.156189c0.7402954 0.7402954 1.156189 1.7443542 1.156189 2.7913208l0 9.868744l0 0l0 5.9212646l0 0c0 2.1801758 -1.7673645 3.9475098 -3.9475098 3.9475098l-35.829376 0l-8.523407 2.9606323l-8.523834 -2.9606323l-7.417328 0c-2.1801453 0 -3.9475098 -1.767334 -3.9475098 -3.9475098l0 0l0 -5.9212646l0 0z" fill-rule="nonzero"></path><path stroke="#000000" stroke-width="2.0" stroke-linejoin="round" stroke-linecap="butt" d="m362.47244 500.34647l0 0c0 -2.1801453 1.7673645 -3.9475098 3.9475098 -3.9475098l7.417328 0l0 0l17.047241 0l35.829376 0c1.0469666 0 2.0510254 0.41589355 2.7913208 1.156189c0.7402954 0.7402954 1.156189 1.7443542 1.156189 2.7913208l0 9.868744l0 0l0 5.9212646l0 0c0 2.1801758 -1.7673645 3.9475098 -3.9475098 3.9475098l-35.829376 0l-8.523407 2.9606323l-8.523834 -2.9606323l-7.417328 0c-2.1801453 0 -3.9475098 -1.767334 -3.9475098 -3.9475098l0 0l0 -5.9212646l0 0z" fill-rule="nonzero"></path><path fill="#000000" d="m393.48822 511.98148l-1.515625 0l0 -5.6875q-0.8125 0.765625 -1.9375 1.140625l0 -1.359375q0.59375 -0.203125 1.28125 -0.734375q0.6875 -0.546875 0.953125 -1.265625l1.21875 0l0 7.90625zm2.3952637 0l0 -1.515625l1.5 0l0 1.515625l-1.5 0zm5.1793823 -7.90625q1.140625 0 1.796875 0.8125q0.765625 0.96875 0.765625 3.203125q0 2.234375 -0.78125 3.21875q-0.640625 0.8124695 -1.78125 0.8124695q-1.140625 0 -1.84375 -0.8905945q-0.703125 -0.890625 -0.703125 -3.15625q0 -2.21875 0.765625 -3.1875q0.640625 -0.8125 1.78125 -0.8125zm0 1.25q-0.265625 0 -0.484375 0.171875q-0.21875 0.171875 -0.328125 0.625q-0.15625 0.59375 -0.15625 1.96875q0 1.390625 0.140625 1.90625q0.140625 0.515625 0.34375 0.6875q0.21875 0.171875 0.484375 0.171875q0.28125 0 0.484375 -0.171875q0.21875 -0.171875 0.34375 -0.625q0.15625 -0.578125 0.15625 -1.96875q0 -1.375 -0.140625 -1.890625q-0.140625 -0.53125 -0.359375 -0.703125q-0.203125 -0.171875 -0.484375 -0.171875z" fill-rule="nonzero"></path><path fill="#cfe2f3" d="m360.6378 341.49606l0 0c0 -2.1801453 1.7673645 -3.9475098 3.9475098 -3.9475098l7.417328 0l0 0l17.047241 0l35.829407 0c1.046936 0 2.0509949 0.41589355 2.7912903 1.156189c0.7403259 0.7403259 1.1562195 1.7443848 1.1562195 2.7913208l0 9.868774l0 0l0 5.9212646l0 0c0 2.1801453 -1.7673645 3.9474792 -3.9475098 3.9474792l-35.829407 0l-8.523407 2.9606323l-8.523834 -2.9606323l-7.417328 0c-2.1801453 0 -3.9475098 -1.767334 -3.9475098 -3.9474792l0 0l0 -5.9212646l0 0z" fill-rule="nonzero"></path><path stroke="#000000" stroke-width="2.0" stroke-linejoin="round" stroke-linecap="butt" d="m360.6378 341.49606l0 0c0 -2.1801453 1.7673645 -3.9475098 3.9475098 -3.9475098l7.417328 0l0 0l17.047241 0l35.829407 0c1.046936 0 2.0509949 0.41589355 2.7912903 1.156189c0.7403259 0.7403259 1.1562195 1.7443848 1.1562195 2.7913208l0 9.868774l0 0l0 5.9212646l0 0c0 2.1801453 -1.7673645 3.9474792 -3.9475098 3.9474792l-35.829407 0l-8.523407 2.9606323l-8.523834 -2.9606323l-7.417328 0c-2.1801453 0 -3.9475098 -1.767334 -3.9475098 -3.9474792l0 0l0 -5.9212646l0 0z" fill-rule="nonzero"></path><path fill="#000000" d="m392.88797 351.72482l0 1.40625l-5.28125 0q0.078125 -0.796875 0.5 -1.5q0.4375 -0.71875 1.703125 -1.890625q1.015625 -0.953125 1.25 -1.296875q0.3125 -0.46875 0.3125 -0.921875q0 -0.5 -0.28125 -0.765625q-0.265625 -0.28125 -0.734375 -0.28125q-0.46875 0 -0.75 0.296875q-0.28125 0.28125 -0.328125 0.9375l-1.5 -0.15625q0.125 -1.25 0.828125 -1.78125q0.71875 -0.546875 1.78125 -0.546875q1.171875 0 1.828125 0.625q0.671875 0.625 0.671875 1.5625q0 0.53125 -0.1875 1.015625q-0.1875 0.484375 -0.609375 1.0q-0.265625 0.359375 -0.984375 1.015625q-0.71875 0.65625 -0.90625 0.875q-0.1875 0.203125 -0.3125 0.40625l3.0 0zm1.1608582 1.40625l0 -1.515625l1.5 0l0 1.515625l-1.5 0zm5.179413 -7.90625q1.140625 0 1.796875 0.8125q0.765625 0.96875 0.765625 3.203125q0 2.234375 -0.78125 3.21875q-0.640625 0.8125 -1.78125 0.8125q-1.140625 0 -1.84375 -0.890625q-0.703125 -0.890625 -0.703125 -3.15625q0 -2.21875 0.765625 -3.1875q0.640625 -0.8125 1.78125 -0.8125zm0 1.25q-0.265625 0 -0.484375 0.171875q-0.21875 0.171875 -0.328125 0.625q-0.15625 0.59375 -0.15625 1.96875q0 1.390625 0.140625 1.90625q0.140625 0.515625 0.34375 0.6875q0.21875 0.171875 0.484375 0.171875q0.28125 0 0.484375 -0.171875q0.21875 -0.171875 0.34375 -0.625q0.15625 -0.578125 0.15625 -1.96875q0 -1.375 -0.140625 -1.890625q-0.140625 -0.53125 -0.359375 -0.703125q-0.203125 -0.171875 -0.484375 -0.171875z" fill-rule="nonzero"></path><path fill="#cfe2f3" d="m287.6483 182.64568l0 0c0 -2.1801605 1.7673645 -3.9475098 3.9475098 -3.9475098l19.580048 0l0 0l35.29135 0l78.39896 0c1.046936 0 2.0509949 0.41589355 2.7912903 1.156189c0.7402954 0.74031067 1.156189 1.7443695 1.156189 2.7913208l0 9.868759l0 0l0 5.9212646l0 0c0 2.1801453 -1.767334 3.9475098 -3.9474792 3.9475098l-78.39896 0l-17.645203 2.960617l-17.646149 -2.960617l-19.580048 0c-2.1801453 0 -3.9475098 -1.7673645 -3.9475098 -3.9475098l0 0l0 -5.9212646l0 0z" fill-rule="nonzero"></path><path stroke="#000000" stroke-width="2.0" stroke-linejoin="round" stroke-linecap="butt" d="m287.6483 182.64568l0 0c0 -2.1801605 1.7673645 -3.9475098 3.9475098 -3.9475098l19.580048 0l0 0l35.29135 0l78.39896 0c1.046936 0 2.0509949 0.41589355 2.7912903 1.156189c0.7402954 0.74031067 1.156189 1.7443695 1.156189 2.7913208l0 9.868759l0 0l0 5.9212646l0 0c0 2.1801453 -1.767334 3.9475098 -3.9474792 3.9475098l-78.39896 0l-17.645203 2.960617l-17.646149 -2.960617l-19.580048 0c-2.1801453 0 -3.9475098 -1.7673645 -3.9475098 -3.9475098l0 0l0 -5.9212646l0 0z" fill-rule="nonzero"></path><path fill="#000000" d="m315.39563 192.18694l1.46875 -0.171875q0.0625 0.5625 0.375 0.859375q0.3125 0.28125 0.734375 0.28125q0.46875 0 0.78125 -0.34375q0.328125 -0.359375 0.328125 -0.953125q0 -0.578125 -0.3125 -0.90625q-0.296875 -0.328125 -0.734375 -0.328125q-0.296875 0 -0.6875 0.109375l0.15625 -1.234375q0.609375 0.015625 0.9375 -0.265625q0.328125 -0.28125 0.328125 -0.75q0 -0.390625 -0.25 -0.625q-0.234375 -0.25 -0.625 -0.25q-0.375 0 -0.65625 0.28125q-0.265625 0.265625 -0.328125 0.78125l-1.390625 -0.234375q0.140625 -0.71875 0.421875 -1.140625q0.296875 -0.4375 0.8125 -0.671875q0.53125 -0.25 1.1875 -0.25q1.109375 0 1.78125 0.703125q0.5625 0.578125 0.5625 1.3125q0 1.046875 -1.140625 1.65625q0.671875 0.140625 1.078125 0.65625q0.40625 0.5 0.40625 1.21875q0 1.03125 -0.765625 1.765625q-0.75 0.734375 -1.875 0.734375q-1.0625 0 -1.765625 -0.609375q-0.703125 -0.625 -0.828125 -1.625zm6.3171387 2.09375l0 -1.515625l1.5 0l0 1.515625l-1.5 0zm5.1793823 -7.90625q1.140625 0 1.796875 0.8125q0.765625 0.96875 0.765625 3.203125q0 2.234375 -0.78125 3.21875q-0.640625 0.8125 -1.78125 0.8125q-1.140625 0 -1.84375 -0.890625q-0.703125 -0.890625 -0.703125 -3.15625q0 -2.21875 0.765625 -3.1875q0.640625 -0.8125 1.78125 -0.8125zm0 1.25q-0.265625 0 -0.484375 0.171875q-0.21875 0.171875 -0.328125 0.625q-0.15625 0.59375 -0.15625 1.96875q0 1.390625 0.140625 1.90625q0.140625 0.515625 0.34375 0.6875q0.21875 0.171875 0.484375 0.171875q0.28125 0 0.484375 -0.171875q0.21875 -0.171875 0.34375 -0.625q0.15625 -0.578125 0.15625 -1.96875q0 -1.375 -0.140625 -1.890625q-0.140625 -0.53125 -0.359375 -0.703125q-0.203125 -0.171875 -0.484375 -0.171875zm9.168396 8.96875l-1.046875 0q-0.8125 -1.234375 -1.25 -2.5625q-0.421875 -1.34375 -0.421875 -2.609375q0 -1.546875 0.53125 -2.9375q0.453125 -1.203125 1.171875 -2.21875l1.03125 0q-0.734375 1.640625 -1.015625 2.78125q-0.28125 1.140625 -0.28125 2.421875q0 0.875 0.15625 1.796875q0.171875 0.921875 0.453125 1.75q0.1875 0.5625 0.671875 1.578125zm1.0486145 -2.3125l0 -7.875l1.5 0l0 7.875l-1.5 0zm4.085663 -3.96875l-1.375 -0.25q0.234375 -0.8125 0.796875 -1.203125q0.5625 -0.40625 1.671875 -0.40625q1.015625 0 1.5 0.234375q0.5 0.234375 0.703125 0.609375q0.203125 0.359375 0.203125 1.34375l-0.015625 1.765625q0 0.75 0.0625 1.109375q0.078125 0.359375 0.28125 0.765625l-1.5 0q-0.0625 -0.15625 -0.140625 -0.453125q-0.03125 -0.125 -0.046875 -0.171875q-0.390625 0.375 -0.84375 0.5625q-0.4375 0.1875 -0.9375 0.1875q-0.875 0 -1.390625 -0.46875q-0.5 -0.484375 -0.5 -1.21875q0 -0.484375 0.234375 -0.859375q0.234375 -0.375 0.640625 -0.578125q0.421875 -0.203125 1.203125 -0.359375q1.0625 -0.1875 1.46875 -0.359375l0 -0.15625q0 -0.4375 -0.21875 -0.609375q-0.21875 -0.1875 -0.8125 -0.1875q-0.390625 0 -0.625 0.15625q-0.21875 0.15625 -0.359375 0.546875zm2.015625 1.234375q-0.296875 0.09375 -0.921875 0.234375q-0.625 0.125 -0.8125 0.25q-0.296875 0.21875 -0.296875 0.53125q0 0.328125 0.234375 0.5625q0.234375 0.21875 0.59375 0.21875q0.40625 0 0.78125 -0.265625q0.28125 -0.203125 0.359375 -0.5q0.0625 -0.1875 0.0625 -0.734375l0 -0.296875zm2.2546082 1.109375l1.5 -0.234375q0.109375 0.4375 0.390625 0.671875q0.296875 0.21875 0.828125 0.21875q0.59375 0 0.890625 -0.203125q0.203125 -0.15625 0.203125 -0.40625q0 -0.171875 -0.109375 -0.28125q-0.125 -0.109375 -0.515625 -0.203125q-1.8125 -0.40625 -2.3125 -0.734375q-0.671875 -0.46875 -0.671875 -1.28125q0 -0.75 0.578125 -1.25q0.59375 -0.5 1.828125 -0.5q1.171875 0 1.734375 0.375q0.5625 0.375 0.78125 1.125l-1.421875 0.265625q-0.09375 -0.328125 -0.34375 -0.5q-0.25 -0.1875 -0.734375 -0.1875q-0.59375 0 -0.84375 0.171875q-0.171875 0.109375 -0.171875 0.296875q0 0.171875 0.140625 0.28125q0.203125 0.15625 1.40625 0.4375q1.21875 0.265625 1.6875 0.65625q0.484375 0.40625 0.484375 1.125q0 0.78125 -0.65625 1.34375q-0.65625 0.5625 -1.953125 0.5625q-1.15625 0 -1.84375 -0.46875q-0.671875 -0.46875 -0.875 -1.28125zm9.067139 -4.078125l0 1.203125l-1.03125 0l0 2.296875q0 0.703125 0.03125 0.828125q0.03125 0.109375 0.125 0.1875q0.109375 0.0625 0.265625 0.0625q0.203125 0 0.609375 -0.140625l0.125 1.171875q-0.53125 0.21875 -1.1875 0.21875q-0.421875 0 -0.75 -0.125q-0.328125 -0.140625 -0.484375 -0.359375q-0.140625 -0.21875 -0.203125 -0.59375q-0.046875 -0.265625 -0.046875 -1.0625l0 -2.484375l-0.6875 0l0 -1.203125l0.6875 0l0 -1.140625l1.515625 -0.875l0 2.015625l1.03125 0zm5.337372 5.703125l-1.515625 0l0 -5.703125l1.40625 0l0 0.8125q0.359375 -0.578125 0.640625 -0.75q0.296875 -0.1875 0.65625 -0.1875q0.515625 0 1.0 0.28125l-0.46875 1.3125q-0.375 -0.25 -0.703125 -0.25q-0.328125 0 -0.546875 0.1875q-0.21875 0.171875 -0.34375 0.625q-0.125 0.453125 -0.125 1.90625l0 1.765625zm6.006378 -1.8125l1.5 0.25q-0.28125 0.828125 -0.90625 1.265625q-0.625 0.421875 -1.578125 0.421875q-1.484375 0 -2.203125 -0.96875q-0.5625 -0.78125 -0.5625 -1.96875q0 -1.421875 0.734375 -2.21875q0.75 -0.796875 1.890625 -0.796875q1.265625 0 2.0 0.84375q0.734375 0.828125 0.703125 2.5625l-3.78125 0q0.015625 0.671875 0.359375 1.046875q0.359375 0.375 0.875 0.375q0.359375 0 0.59375 -0.1875q0.25 -0.203125 0.375 -0.625zm0.078125 -1.53125q-0.015625 -0.65625 -0.34375 -0.984375q-0.3125 -0.34375 -0.765625 -0.34375q-0.5 0 -0.828125 0.359375q-0.3125 0.359375 -0.3125 0.96875l2.25 0zm2.5514832 3.34375l0 -7.875l1.5 0l0 7.875l-1.5 0zm6.257538 -1.8125l1.5 0.25q-0.28125 0.828125 -0.90625 1.265625q-0.625 0.421875 -1.578125 0.421875q-1.484375 0 -2.203125 -0.96875q-0.5625 -0.78125 -0.5625 -1.96875q0 -1.421875 0.734375 -2.21875q0.75 -0.796875 1.890625 -0.796875q1.265625 0 2.0 0.84375q0.734375 0.828125 0.703125 2.5625l-3.78125 0q0.015625 0.671875 0.359375 1.046875q0.359375 0.375 0.875 0.375q0.359375 0 0.59375 -0.1875q0.25 -0.203125 0.375 -0.625zm0.078125 -1.53125q-0.015625 -0.65625 -0.34375 -0.984375q-0.3125 -0.34375 -0.765625 -0.34375q-0.5 0 -0.828125 0.359375q-0.3125 0.359375 -0.3125 0.96875l2.25 0zm3.6764832 -0.625l-1.375 -0.25q0.234375 -0.8125 0.796875 -1.203125q0.5625 -0.40625 1.671875 -0.40625q1.015625 0 1.5 0.234375q0.5 0.234375 0.703125 0.609375q0.203125 0.359375 0.203125 1.34375l-0.015625 1.765625q0 0.75 0.0625 1.109375q0.078125 0.359375 0.28125 0.765625l-1.5 0q-0.0625 -0.15625 -0.140625 -0.453125q-0.03125 -0.125 -0.046875 -0.171875q-0.390625 0.375 -0.84375 0.5625q-0.4375 0.1875 -0.9375 0.1875q-0.875 0 -1.390625 -0.46875q-0.5 -0.484375 -0.5 -1.21875q0 -0.484375 0.234375 -0.859375q0.234375 -0.375 0.640625 -0.578125q0.421875 -0.203125 1.203125 -0.359375q1.0625 -0.1875 1.46875 -0.359375l0 -0.15625q0 -0.4375 -0.21875 -0.609375q-0.21875 -0.1875 -0.8125 -0.1875q-0.390625 0 -0.625 0.15625q-0.21875 0.15625 -0.359375 0.546875zm2.015625 1.234375q-0.296875 0.09375 -0.921875 0.234375q-0.625 0.125 -0.8125 0.25q-0.296875 0.21875 -0.296875 0.53125q0 0.328125 0.234375 0.5625q0.234375 0.21875 0.59375 0.21875q0.40625 0 0.78125 -0.265625q0.28125 -0.203125 0.359375 -0.5q0.0625 -0.1875 0.0625 -0.734375l0 -0.296875zm2.2546387 1.109375l1.5 -0.234375q0.109375 0.4375 0.390625 0.671875q0.296875 0.21875 0.828125 0.21875q0.59375 0 0.890625 -0.203125q0.203125 -0.15625 0.203125 -0.40625q0 -0.171875 -0.109375 -0.28125q-0.125 -0.109375 -0.515625 -0.203125q-1.8125 -0.40625 -2.3125 -0.734375q-0.671875 -0.46875 -0.671875 -1.28125q0 -0.75 0.578125 -1.25q0.59375 -0.5 1.828125 -0.5q1.171875 0 1.734375 0.375q0.5625 0.375 0.78125 1.125l-1.421875 0.265625q-0.09375 -0.328125 -0.34375 -0.5q-0.25 -0.1875 -0.734375 -0.1875q-0.59375 0 -0.84375 0.171875q-0.171875 0.109375 -0.171875 0.296875q0 0.171875 0.140625 0.28125q0.203125 0.15625 1.40625 0.4375q1.21875 0.265625 1.6875 0.65625q0.484375 0.40625 0.484375 1.125q0 0.78125 -0.65625 1.34375q-0.65625 0.5625 -1.953125 0.5625q-1.15625 0 -1.84375 -0.46875q-0.671875 -0.46875 -0.875 -1.28125zm9.754608 -0.1875l1.5 0.25q-0.28125 0.828125 -0.90625 1.265625q-0.625 0.421875 -1.578125 0.421875q-1.484375 0 -2.203125 -0.96875q-0.5625 -0.78125 -0.5625 -1.96875q0 -1.421875 0.734375 -2.21875q0.75 -0.796875 1.890625 -0.796875q1.265625 0 2.0 0.84375q0.734375 0.828125 0.703125 2.5625l-3.78125 0q0.015625 0.671875 0.359375 1.046875q0.359375 0.375 0.875 0.375q0.359375 0 0.59375 -0.1875q0.25 -0.203125 0.375 -0.625zm0.078125 -1.53125q-0.015625 -0.65625 -0.34375 -0.984375q-0.3125 -0.34375 -0.765625 -0.34375q-0.5 0 -0.828125 0.359375q-0.3125 0.359375 -0.3125 0.96875l2.25 0zm3.1296387 1.3125l-0.390625 -4.0l0 -1.84375l1.640625 0l0 1.84375l-0.390625 4.0l-0.859375 0zm-0.328125 2.03125l0 -1.515625l1.515625 0l0 1.515625l-1.515625 0zm2.8767395 2.3125q0.4375 -0.953125 0.625 -1.46875q0.1875 -0.5 0.34375 -1.171875q0.15625 -0.671875 0.21875 -1.265625q0.078125 -0.59375 0.078125 -1.21875q0 -1.28125 -0.28125 -2.421875q-0.265625 -1.140625 -1.0 -2.78125l1.03125 0q0.8125 1.15625 1.25 2.453125q0.453125 1.296875 0.453125 2.625q0 1.125 -0.359375 2.40625q-0.390625 1.4375 -1.328125 2.84375l-1.03125 0z" fill-rule="nonzero"></path><path fill="#cfe2f3" d="m331.01575 19.259842l0 0c0 -3.4325724 2.7826538 -6.2152224 6.21521 -6.2152224l10.897644 0l0 0l25.669312 0l53.67978 0c1.6483765 0 3.229248 0.6548157 4.3948364 1.8203964c1.1655579 1.1655798 1.8203735 2.7464476 1.8203735 4.394826l0 15.538059l0 0l0 9.322834l0 0c0 3.4325714 -2.7826233 6.2152214 -6.21521 6.2152214l-53.67978 0l-12.83432 4.661419l-12.834991 -4.661419l-10.897644 0c-3.4325562 0 -6.21521 -2.78265 -6.21521 -6.2152214l0 0l0 -9.322834l0 0z" fill-rule="nonzero"></path><path stroke="#000000" stroke-width="2.0" stroke-linejoin="round" stroke-linecap="butt" d="m331.01575 19.259842l0 0c0 -3.4325724 2.7826538 -6.2152224 6.21521 -6.2152224l10.897644 0l0 0l25.669312 0l53.67978 0c1.6483765 0 3.229248 0.6548157 4.3948364 1.8203964c1.1655579 1.1655798 1.8203735 2.7464476 1.8203735 4.394826l0 15.538059l0 0l0 9.322834l0 0c0 3.4325714 -2.7826233 6.2152214 -6.21521 6.2152214l-53.67978 0l-12.83432 4.661419l-12.834991 -4.661419l-10.897644 0c-3.4325562 0 -6.21521 -2.78265 -6.21521 -6.2152214l0 0l0 -9.322834l0 0z" fill-rule="nonzero"></path><path fill="#000000" d="m366.5893 28.930288l0 -7.875l1.578125 0l0 3.09375l3.125 0l0 -3.09375l1.578125 0l0 7.875l-1.578125 0l0 -3.4375l-3.125 0l0 3.4375l-1.578125 0zm7.679962 0l0 -7.875l5.84375 0l0 1.328125l-4.25 0l0 1.75l3.953125 0l0 1.328125l-3.953125 0l0 2.140625l4.40625 0l0 1.328125l-6.0 0zm14.2170105 0l-1.734375 0l-0.6875 -1.78125l-3.140625 0l-0.65625 1.78125l-1.6875 0l3.0625 -7.875l1.6875 0l3.15625 7.875zm-2.9375 -3.109375l-1.078125 -2.921875l-1.0625 2.921875l2.140625 0zm3.5237427 -4.765625l2.90625 0q0.984375 0 1.5 0.15625q0.6875 0.203125 1.171875 0.71875q0.5 0.515625 0.75 1.28125q0.265625 0.75 0.265625 1.859375q0 0.96875 -0.234375 1.671875q-0.296875 0.859375 -0.84375 1.390625q-0.421875 0.40625 -1.125 0.625q-0.515625 0.171875 -1.40625 0.171875l-2.984375 0l0 -7.875zm1.59375 1.328125l0 5.21875l1.1875 0q0.65625 0 0.953125 -0.078125q0.390625 -0.09375 0.640625 -0.3125q0.265625 -0.234375 0.421875 -0.765625q0.15625 -0.53125 0.15625 -1.453125q0 -0.90625 -0.15625 -1.390625q-0.15625 -0.5 -0.453125 -0.765625q-0.296875 -0.28125 -0.734375 -0.375q-0.328125 -0.078125 -1.3125 -0.078125l-0.703125 0zm6.054962 5.03125l1.515625 0l0 1.078125q0 0.65625 -0.125 1.03125q-0.109375 0.390625 -0.421875 0.6875q-0.3125 0.296875 -0.796875 0.46875l-0.296875 -0.609375q0.453125 -0.15625 0.640625 -0.421875q0.203125 -0.265625 0.21875 -0.71875l-0.734375 0l0 -1.515625z" fill-rule="nonzero"></path><path fill="#000000" d="m349.03836 38.99279q0 -0.75 0.375 -1.453125q0.375 -0.703125 1.046875 -1.0625q0.6875 -0.375 1.515625 -0.375q1.296875 0 2.125 0.84375q0.828125 0.828125 0.828125 2.109375q0 1.296875 -0.84375 2.15625q-0.828125 0.84375 -2.09375 0.84375q-0.78125 0 -1.5 -0.34375q-0.703125 -0.359375 -1.078125 -1.046875q-0.375 -0.6875 -0.375 -1.671875zm1.546875 0.078125q0 0.859375 0.40625 1.3125q0.40625 0.453125 1.0 0.453125q0.578125 0 0.984375 -0.453125q0.40625 -0.453125 0.40625 -1.3125q0 -0.84375 -0.40625 -1.296875q-0.40625 -0.453125 -0.984375 -0.453125q-0.59375 0 -1.0 0.453125q-0.40625 0.453125 -0.40625 1.296875zm6.7592773 2.859375l-1.515625 0l0 -5.703125l1.40625 0l0 0.8125q0.359375 -0.578125 0.640625 -0.75q0.296875 -0.1875 0.65625 -0.1875q0.515625 0 1.0 0.28125l-0.46875 1.3125q-0.375 -0.25 -0.703125 -0.25q-0.328125 0 -0.546875 0.1875q-0.21875 0.171875 -0.34375 0.625q-0.125 0.453125 -0.125 1.90625l0 1.765625zm2.7094727 -6.484375l0 -1.390625l1.5 0l0 1.390625l-1.5 0zm0 6.484375l0 -5.703125l1.5 0l0 5.703125l-1.5 0zm2.8200378 0.375l1.71875 0.203125q0.046875 0.3125 0.203125 0.421875q0.203125 0.15625 0.671875 0.15625q0.59375 0 0.890625 -0.171875q0.1875 -0.125 0.296875 -0.375q0.0625 -0.203125 0.0625 -0.703125l0 -0.828125q-0.671875 0.921875 -1.703125 0.921875q-1.140625 0 -1.8125 -0.96875q-0.53125 -0.765625 -0.53125 -1.921875q0 -1.421875 0.6875 -2.171875q0.6875 -0.765625 1.71875 -0.765625q1.0625 0 1.75 0.921875l0 -0.796875l1.40625 0l0 5.125q0 1.0 -0.171875 1.5q-0.15625 0.5 -0.46875 0.78125q-0.296875 0.296875 -0.796875 0.453125q-0.5 0.15625 -1.265625 0.15625q-1.453125 0 -2.0625 -0.5q-0.609375 -0.484375 -0.609375 -1.25q0 -0.078125 0.015625 -0.1875zm1.34375 -3.34375q0 0.90625 0.34375 1.328125q0.359375 0.421875 0.875 0.421875q0.546875 0 0.921875 -0.421875q0.390625 -0.4375 0.390625 -1.296875q0 -0.875 -0.375 -1.296875q-0.359375 -0.4375 -0.90625 -0.4375q-0.546875 0 -0.90625 0.421875q-0.34375 0.421875 -0.34375 1.28125zm5.306122 -3.515625l0 -1.390625l1.5 0l0 1.390625l-1.5 0zm0 6.484375l0 -5.703125l1.5 0l0 5.703125l-1.5 0zm8.148163 0l-1.515625 0l0 -2.90625q0 -0.921875 -0.09375 -1.1875q-0.09375 -0.28125 -0.3125 -0.421875q-0.21875 -0.15625 -0.53125 -0.15625q-0.390625 0 -0.703125 0.21875q-0.3125 0.203125 -0.4375 0.5625q-0.109375 0.34375 -0.109375 1.3125l0 2.578125l-1.5 0l0 -5.703125l1.40625 0l0 0.84375q0.734375 -0.96875 1.875 -0.96875q0.5 0 0.90625 0.1875q0.421875 0.171875 0.625 0.453125q0.21875 0.265625 0.296875 0.625q0.09375 0.359375 0.09375 1.015625l0 3.546875zm0.5092468 0.140625l1.953125 -8.15625l1.125 0l-1.96875 8.15625l-1.109375 0zm3.6481628 -5.84375l1.390625 0l0 0.78125q0.75 -0.90625 1.78125 -0.90625q0.546875 0 0.953125 0.234375q0.40625 0.21875 0.65625 0.671875q0.375 -0.453125 0.8125 -0.671875q0.4375 -0.234375 0.9375 -0.234375q0.625 0 1.0625 0.25q0.4375 0.25 0.640625 0.75q0.15625 0.359375 0.15625 1.1875l0 3.640625l-1.5 0l0 -3.265625q0 -0.84375 -0.15625 -1.09375q-0.21875 -0.3125 -0.65625 -0.3125q-0.3125 0 -0.59375 0.1875q-0.28125 0.1875 -0.40625 0.5625q-0.109375 0.375 -0.109375 1.1875l0 2.734375l-1.515625 0l0 -3.125q0 -0.828125 -0.078125 -1.0625q-0.078125 -0.25 -0.25 -0.359375q-0.171875 -0.125 -0.46875 -0.125q-0.34375 0 -0.625 0.1875q-0.28125 0.1875 -0.40625 0.546875q-0.109375 0.34375 -0.109375 1.171875l0 2.765625l-1.515625 0l0 -5.703125zm10.725098 1.734375l-1.375 -0.25q0.234375 -0.8125 0.796875 -1.203125q0.5625 -0.40625 1.671875 -0.40625q1.015625 0 1.5 0.234375q0.5 0.234375 0.703125 0.609375q0.203125 0.359375 0.203125 1.34375l-0.015625 1.765625q0 0.75 0.0625 1.109375q0.078125 0.359375 0.28125 0.765625l-1.5 0q-0.0625 -0.15625 -0.140625 -0.453125q-0.03125 -0.125 -0.046875 -0.171875q-0.390625 0.375 -0.84375 0.5625q-0.4375 0.1875 -0.9375 0.1875q-0.875 0 -1.390625 -0.46875q-0.5 -0.484375 -0.5 -1.21875q0 -0.484375 0.234375 -0.859375q0.234375 -0.375 0.640625 -0.578125q0.421875 -0.203125 1.203125 -0.359375q1.0625 -0.1875 1.46875 -0.359375l0 -0.15625q0 -0.4375 -0.21875 -0.609375q-0.21875 -0.1875 -0.8125 -0.1875q-0.390625 0 -0.625 0.15625q-0.21875 0.15625 -0.359375 0.546875zm2.015625 1.234375q-0.296875 0.09375 -0.921875 0.234375q-0.625 0.125 -0.8125 0.25q-0.296875 0.21875 -0.296875 0.53125q0 0.328125 0.234375 0.5625q0.234375 0.21875 0.59375 0.21875q0.40625 0 0.78125 -0.265625q0.28125 -0.203125 0.359375 -0.5q0.0625 -0.1875 0.0625 -0.734375l0 -0.296875zm2.2546387 1.109375l1.5 -0.234375q0.109375 0.4375 0.390625 0.671875q0.296875 0.21875 0.828125 0.21875q0.59375 0 0.890625 -0.203125q0.203125 -0.15625 0.203125 -0.40625q0 -0.171875 -0.109375 -0.28125q-0.125 -0.109375 -0.515625 -0.203125q-1.8125 -0.40625 -2.3125 -0.734375q-0.671875 -0.46875 -0.671875 -1.28125q0 -0.75 0.578125 -1.25q0.59375 -0.5 1.828125 -0.5q1.171875 0 1.734375 0.375q0.5625 0.375 0.78125 1.125l-1.421875 0.265625q-0.09375 -0.328125 -0.34375 -0.5q-0.25 -0.1875 -0.734375 -0.1875q-0.59375 0 -0.84375 0.171875q-0.171875 0.109375 -0.171875 0.296875q0 0.171875 0.140625 0.28125q0.203125 0.15625 1.40625 0.4375q1.21875 0.265625 1.6875 0.65625q0.484375 0.40625 0.484375 1.125q0 0.78125 -0.65625 1.34375q-0.65625 0.5625 -1.953125 0.5625q-1.15625 0 -1.84375 -0.46875q-0.671875 -0.46875 -0.875 -1.28125zm9.067108 -4.078125l0 1.203125l-1.03125 0l0 2.296875q0 0.703125 0.03125 0.828125q0.03125 0.109375 0.125 0.1875q0.109375 0.0625 0.265625 0.0625q0.203125 0 0.609375 -0.140625l0.125 1.171875q-0.53125 0.21875 -1.1875 0.21875q-0.421875 0 -0.75 -0.125q-0.328125 -0.140625 -0.484375 -0.359375q-0.140625 -0.21875 -0.203125 -0.59375q-0.046875 -0.265625 -0.046875 -1.0625l0 -2.484375l-0.6875 0l0 -1.203125l0.6875 0l0 -1.140625l1.515625 -0.875l0 2.015625l1.03125 0zm4.2361145 3.890625l1.5 0.25q-0.28125 0.828125 -0.90625 1.265625q-0.625 0.421875 -1.578125 0.421875q-1.484375 0 -2.203125 -0.96875q-0.5625 -0.78125 -0.5625 -1.96875q0 -1.421875 0.734375 -2.21875q0.75 -0.796875 1.890625 -0.796875q1.265625 0 2.0 0.84375q0.734375 0.828125 0.703125 2.5625l-3.78125 0q0.015625 0.671875 0.359375 1.046875q0.359375 0.375 0.875 0.375q0.359375 0 0.59375 -0.1875q0.25 -0.203125 0.375 -0.625zm0.078125 -1.53125q-0.015625 -0.65625 -0.34375 -0.984375q-0.3125 -0.34375 -0.765625 -0.34375q-0.5 0 -0.828125 0.359375q-0.3125 0.359375 -0.3125 0.96875l2.25 0zm3.9890137 3.34375l-1.515625 0l0 -5.703125l1.40625 0l0 0.8125q0.359375 -0.578125 0.640625 -0.75q0.296875 -0.1875 0.65625 -0.1875q0.515625 0 1.0 0.28125l-0.46875 1.3125q-0.375 -0.25 -0.703125 -0.25q-0.328125 0 -0.546875 0.1875q-0.21875 0.171875 -0.34375 0.625q-0.125 0.453125 -0.125 1.90625l0 1.765625z" fill-rule="nonzero"></path><path fill="#cfe2f3" d="m631.15485 80.92126l0 0c0 -3.4325714 2.7826538 -6.2152176 6.21521 -6.2152176l23.207397 0l0 0l44.13385 0l96.763794 0c1.6483765 0 3.229248 0.6548157 4.3947754 1.8203964c1.1655884 1.1655807 1.8204346 2.7464447 1.8204346 4.394821l0 15.538063l0 0l0 9.32283l0 0c0 3.4325714 -2.7826538 6.215225 -6.21521 6.215225l-96.763794 0l-22.066345 4.661415l-22.067505 -4.661415l-23.207397 0c-3.4325562 0 -6.21521 -2.7826538 -6.21521 -6.215225l0 0l0 -9.32283l0 0z" fill-rule="nonzero"></path><path stroke="#000000" stroke-width="2.0" stroke-linejoin="round" stroke-linecap="butt" d="m631.15485 80.92126l0 0c0 -3.4325714 2.7826538 -6.2152176 6.21521 -6.2152176l23.207397 0l0 0l44.13385 0l96.763794 0c1.6483765 0 3.229248 0.6548157 4.3947754 1.8203964c1.1655884 1.1655807 1.8204346 2.7464447 1.8204346 4.394821l0 15.538063l0 0l0 9.32283l0 0c0 3.4325714 -2.7826538 6.215225 -6.21521 6.215225l-96.763794 0l-22.066345 4.661415l-22.067505 -4.661415l-23.207397 0c-3.4325562 0 -6.21521 -2.7826538 -6.21521 -6.215225l0 0l0 -9.32283l0 0z" fill-rule="nonzero"></path><path fill="#000000" d="m651.4712 94.154205q0 -0.75 0.375 -1.453125q0.375 -0.703125 1.046875 -1.0625q0.6875 -0.375 1.515625 -0.375q1.296875 0 2.125 0.84375q0.828125 0.828125 0.828125 2.109375q0 1.296875 -0.84375 2.15625q-0.828125 0.84375 -2.09375 0.84375q-0.78125 0 -1.5 -0.34375q-0.703125 -0.359375 -1.078125 -1.046875q-0.375 -0.6875 -0.375 -1.671875zm1.546875 0.078125q0 0.859375 0.40625 1.3125q0.40625 0.453125 1.0 0.453125q0.578125 0 0.984375 -0.453125q0.40625 -0.453125 0.40625 -1.3125q0 -0.84375 -0.40625 -1.296875q-0.40625 -0.453125 -0.984375 -0.453125q-0.59375 0 -1.0 0.453125q-0.40625 0.453125 -0.40625 1.296875zm6.7592773 2.859375l-1.515625 0l0 -5.703125l1.40625 0l0 0.8125q0.359375 -0.578125 0.640625 -0.75q0.296875 -0.1875 0.65625 -0.1875q0.515625 0 1.0 0.28125l-0.46875 1.3125q-0.375 -0.25 -0.703125 -0.25q-0.328125 0 -0.546875 0.1875q-0.21875 0.171875 -0.34375 0.625q-0.125 0.453125 -0.125 1.90625l0 1.765625zm2.7094727 -6.484375l0 -1.390625l1.5 0l0 1.390625l-1.5 0zm0 6.484375l0 -5.703125l1.5 0l0 5.703125l-1.5 0zm2.8200073 0.375l1.71875 0.203125q0.046875 0.3125 0.203125 0.421875q0.203125 0.15625 0.671875 0.15625q0.59375 0 0.890625 -0.171875q0.1875 -0.125 0.296875 -0.375q0.0625 -0.203125 0.0625 -0.703125l0 -0.828125q-0.671875 0.921875 -1.703125 0.921875q-1.140625 0 -1.8125 -0.96875q-0.53125 -0.765625 -0.53125 -1.921875q0 -1.421875 0.6875 -2.171875q0.6875 -0.765625 1.71875 -0.765625q1.0625 0 1.75 0.921875l0 -0.796875l1.40625 0l0 5.125q0 1.0 -0.171875 1.5q-0.15625 0.5 -0.46875 0.78125q-0.296875 0.296875 -0.796875 0.453125q-0.5 0.15625 -1.265625 0.15625q-1.453125 0 -2.0625 -0.5q-0.609375 -0.484375 -0.609375 -1.25q0 -0.078125 0.015625 -0.1875zm1.34375 -3.34375q0 0.90625 0.34375 1.328125q0.359375 0.421875 0.875 0.421875q0.546875 0 0.921875 -0.421875q0.390625 -0.4375 0.390625 -1.296875q0 -0.875 -0.375 -1.296875q-0.359375 -0.4375 -0.90625 -0.4375q-0.546875 0 -0.90625 0.421875q-0.34375 0.421875 -0.34375 1.28125zm5.3061523 -3.515625l0 -1.390625l1.5 0l0 1.390625l-1.5 0zm0 6.484375l0 -5.703125l1.5 0l0 5.703125l-1.5 0zm8.148132 0l-1.515625 0l0 -2.90625q0 -0.921875 -0.09375 -1.1875q-0.09375 -0.28125 -0.3125 -0.421875q-0.21875 -0.15625 -0.53125 -0.15625q-0.390625 0 -0.703125 0.21875q-0.3125 0.203125 -0.4375 0.5625q-0.109375 0.34375 -0.109375 1.3125l0 2.578125l-1.5 0l0 -5.703125l1.40625 0l0 0.84375q0.734375 -0.96875 1.875 -0.96875q0.5 0 0.90625 0.1875q0.421875 0.171875 0.625 0.453125q0.21875 0.265625 0.296875 0.625q0.09375 0.359375 0.09375 1.015625l0 3.546875zm0.50927734 0.140625l1.953125 -8.15625l1.125 0l-1.96875 8.15625l-1.109375 0zm3.6481323 -5.84375l1.390625 0l0 0.78125q0.75 -0.90625 1.78125 -0.90625q0.546875 0 0.953125 0.234375q0.40625 0.21875 0.65625 0.671875q0.375 -0.453125 0.8125 -0.671875q0.4375 -0.234375 0.9375 -0.234375q0.625 0 1.0625 0.25q0.4375 0.25 0.640625 0.75q0.15625 0.359375 0.15625 1.1875l0 3.640625l-1.5 0l0 -3.265625q0 -0.84375 -0.15625 -1.09375q-0.21875 -0.3125 -0.65625 -0.3125q-0.3125 0 -0.59375 0.1875q-0.28125 0.1875 -0.40625 0.5625q-0.109375 0.375 -0.109375 1.1875l0 2.734375l-1.515625 0l0 -3.125q0 -0.828125 -0.078125 -1.0625q-0.078125 -0.25 -0.25 -0.359375q-0.171875 -0.125 -0.46875 -0.125q-0.34375 0 -0.625 0.1875q-0.28125 0.1875 -0.40625 0.546875q-0.109375 0.34375 -0.109375 1.171875l0 2.765625l-1.515625 0l0 -5.703125zm10.725159 1.734375l-1.375 -0.25q0.234375 -0.8125 0.796875 -1.203125q0.5625 -0.40625 1.671875 -0.40625q1.015625 0 1.5 0.234375q0.5 0.234375 0.703125 0.609375q0.203125 0.359375 0.203125 1.34375l-0.015625 1.765625q0 0.75 0.0625 1.109375q0.078125 0.359375 0.28125 0.765625l-1.5 0q-0.0625 -0.15625 -0.140625 -0.453125q-0.03125 -0.125 -0.046875 -0.171875q-0.390625 0.375 -0.84375 0.5625q-0.4375 0.1875 -0.9375 0.1875q-0.875 0 -1.390625 -0.46875q-0.5 -0.484375 -0.5 -1.21875q0 -0.484375 0.234375 -0.859375q0.234375 -0.375 0.640625 -0.578125q0.421875 -0.203125 1.203125 -0.359375q1.0625 -0.1875 1.46875 -0.359375l0 -0.15625q0 -0.4375 -0.21875 -0.609375q-0.21875 -0.1875 -0.8125 -0.1875q-0.390625 0 -0.625 0.15625q-0.21875 0.15625 -0.359375 0.546875zm2.015625 1.234375q-0.296875 0.09375 -0.921875 0.234375q-0.625 0.125 -0.8125 0.25q-0.296875 0.21875 -0.296875 0.53125q0 0.328125 0.234375 0.5625q0.234375 0.21875 0.59375 0.21875q0.40625 0 0.78125 -0.265625q0.28125 -0.203125 0.359375 -0.5q0.0625 -0.1875 0.0625 -0.734375l0 -0.296875zm2.7858276 -3.75l0 -1.390625l1.5 0l0 1.390625l-1.5 0zm0 6.484375l0 -5.703125l1.5 0l0 5.703125l-1.5 0zm8.148193 0l-1.515625 0l0 -2.90625q0 -0.921875 -0.09375 -1.1875q-0.09375 -0.28125 -0.3125 -0.421875q-0.21875 -0.15625 -0.53125 -0.15625q-0.390625 0 -0.703125 0.21875q-0.3125 0.203125 -0.4375 0.5625q-0.109375 0.34375 -0.109375 1.3125l0 2.578125l-1.5 0l0 -5.703125l1.40625 0l0 0.84375q0.734375 -0.96875 1.875 -0.96875q0.5 0 0.90625 0.1875q0.421875 0.171875 0.625 0.453125q0.21875 0.265625 0.296875 0.625q0.09375 0.359375 0.09375 1.015625l0 3.546875zm3.9310913 -5.703125l0 1.203125l-1.03125 0l0 2.296875q0 0.703125 0.03125 0.828125q0.03125 0.109375 0.125 0.1875q0.109375 0.0625 0.265625 0.0625q0.203125 0 0.609375 -0.140625l0.125 1.171875q-0.53125 0.21875 -1.1875 0.21875q-0.421875 0 -0.75 -0.125q-0.328125 -0.140625 -0.484375 -0.359375q-0.140625 -0.21875 -0.203125 -0.59375q-0.046875 -0.265625 -0.046875 -1.0625l0 -2.484375l-0.6875 0l0 -1.203125l0.6875 0l0 -1.140625l1.515625 -0.875l0 2.015625l1.03125 0zm4.236145 3.890625l1.5 0.25q-0.28125 0.828125 -0.90625 1.265625q-0.625 0.421875 -1.578125 0.421875q-1.484375 0 -2.203125 -0.96875q-0.5625 -0.78125 -0.5625 -1.96875q0 -1.421875 0.734375 -2.21875q0.75 -0.796875 1.890625 -0.796875q1.265625 0 2.0 0.84375q0.734375 0.828125 0.703125 2.5625l-3.78125 0q0.015625 0.671875 0.359375 1.046875q0.359375 0.375 0.875 0.375q0.359375 0 0.59375 -0.1875q0.25 -0.203125 0.375 -0.625zm0.078125 -1.53125q-0.015625 -0.65625 -0.34375 -0.984375q-0.3125 -0.34375 -0.765625 -0.34375q-0.5 0 -0.828125 0.359375q-0.3125 0.359375 -0.3125 0.96875l2.25 0zm7.7390137 3.34375l-1.515625 0l0 -2.90625q0 -0.921875 -0.09375 -1.1875q-0.09375 -0.28125 -0.3125 -0.421875q-0.21875 -0.15625 -0.53125 -0.15625q-0.390625 0 -0.703125 0.21875q-0.3125 0.203125 -0.4375 0.5625q-0.109375 0.34375 -0.109375 1.3125l0 2.578125l-1.5 0l0 -5.703125l1.40625 0l0 0.84375q0.734375 -0.96875 1.875 -0.96875q0.5 0 0.90625 0.1875q0.421875 0.171875 0.625 0.453125q0.21875 0.265625 0.296875 0.625q0.09375 0.359375 0.09375 1.015625l0 3.546875zm2.4467163 -3.96875l-1.375 -0.25q0.234375 -0.8125 0.796875 -1.203125q0.5625 -0.40625 1.671875 -0.40625q1.015625 0 1.5 0.234375q0.5 0.234375 0.703125 0.609375q0.203125 0.359375 0.203125 1.34375l-0.015625 1.765625q0 0.75 0.0625 1.109375q0.078125 0.359375 0.28125 0.765625l-1.5 0q-0.0625 -0.15625 -0.140625 -0.453125q-0.03125 -0.125 -0.046875 -0.171875q-0.390625 0.375 -0.84375 0.5625q-0.4375 0.1875 -0.9375 0.1875q-0.875 0 -1.390625 -0.46875q-0.5 -0.484375 -0.5 -1.21875q0 -0.484375 0.234375 -0.859375q0.234375 -0.375 0.640625 -0.578125q0.421875 -0.203125 1.203125 -0.359375q1.0625 -0.1875 1.46875 -0.359375l0 -0.15625q0 -0.4375 -0.21875 -0.609375q-0.21875 -0.1875 -0.8125 -0.1875q-0.390625 0 -0.625 0.15625q-0.21875 0.15625 -0.359375 0.546875zm2.015625 1.234375q-0.296875 0.09375 -0.921875 0.234375q-0.625 0.125 -0.8125 0.25q-0.296875 0.21875 -0.296875 0.53125q0 0.328125 0.234375 0.5625q0.234375 0.21875 0.59375 0.21875q0.40625 0 0.78125 -0.265625q0.28125 -0.203125 0.359375 -0.5q0.0625 -0.1875 0.0625 -0.734375l0 -0.296875zm7.9733887 2.734375l-1.515625 0l0 -2.90625q0 -0.921875 -0.09375 -1.1875q-0.09375 -0.28125 -0.3125 -0.421875q-0.21875 -0.15625 -0.53125 -0.15625q-0.390625 0 -0.703125 0.21875q-0.3125 0.203125 -0.4375 0.5625q-0.109375 0.34375 -0.109375 1.3125l0 2.578125l-1.5 0l0 -5.703125l1.40625 0l0 0.84375q0.734375 -0.96875 1.875 -0.96875q0.5 0 0.90625 0.1875q0.421875 0.171875 0.625 0.453125q0.21875 0.265625 0.296875 0.625q0.09375 0.359375 0.09375 1.015625l0 3.546875zm6.2905273 -4.015625l-1.484375 0.265625q-0.078125 -0.4375 -0.34375 -0.65625q-0.265625 -0.234375 -0.6875 -0.234375q-0.5625 0 -0.90625 0.390625q-0.328125 0.375 -0.328125 1.296875q0 1.015625 0.328125 1.4375q0.34375 0.421875 0.921875 0.421875q0.4375 0 0.703125 -0.25q0.28125 -0.25 0.390625 -0.84375l1.484375 0.25q-0.234375 1.03125 -0.890625 1.546875q-0.65625 0.515625 -1.75 0.515625q-1.265625 0 -2.015625 -0.78125q-0.734375 -0.796875 -0.734375 -2.1875q0 -1.421875 0.75 -2.203125q0.75 -0.78125 2.015625 -0.78125q1.046875 0 1.65625 0.453125q0.625 0.4375 0.890625 1.359375zm4.2546387 2.203125l1.5 0.25q-0.28125 0.828125 -0.90625 1.265625q-0.625 0.421875 -1.578125 0.421875q-1.484375 0 -2.203125 -0.96875q-0.5625 -0.78125 -0.5625 -1.96875q0 -1.421875 0.734375 -2.21875q0.75 -0.796875 1.890625 -0.796875q1.265625 0 2.0 0.84375q0.734375 0.828125 0.703125 2.5625l-3.78125 0q0.015625 0.671875 0.359375 1.046875q0.359375 0.375 0.875 0.375q0.359375 0 0.59375 -0.1875q0.25 -0.203125 0.375 -0.625zm0.078125 -1.53125q-0.015625 -0.65625 -0.34375 -0.984375q-0.3125 -0.34375 -0.765625 -0.34375q-0.5 0 -0.828125 0.359375q-0.3125 0.359375 -0.3125 0.96875l2.25 0zm2.3639526 1.25l0 -1.515625l2.96875 0l0 1.515625l-2.96875 0zm3.65802 2.09375l0 -7.875l1.515625 0l0 2.84375q0.703125 -0.796875 1.65625 -0.796875q1.046875 0 1.71875 0.75q0.6875 0.75 0.6875 2.171875q0 1.453125 -0.703125 2.25q-0.6875 0.78125 -1.6875 0.78125q-0.484375 0 -0.96875 -0.234375q-0.46875 -0.25 -0.8125 -0.734375l0 0.84375l-1.40625 0zm1.5 -2.96875q0 0.875 0.28125 1.296875q0.390625 0.609375 1.046875 0.609375q0.5 0 0.84375 -0.421875q0.359375 -0.4375 0.359375 -1.359375q0 -0.96875 -0.359375 -1.390625q-0.34375 -0.4375 -0.90625 -0.4375q-0.546875 0 -0.90625 0.421875q-0.359375 0.421875 -0.359375 1.28125zm6.5249023 2.96875l-1.515625 0l0 -5.703125l1.40625 0l0 0.8125q0.359375 -0.578125 0.640625 -0.75q0.296875 -0.1875 0.65625 -0.1875q0.515625 0 1.0 0.28125l-0.46875 1.3125q-0.375 -0.25 -0.703125 -0.25q-0.328125 0 -0.546875 0.1875q-0.21875 0.171875 -0.34375 0.625q-0.125 0.453125 -0.125 1.90625l0 1.765625zm3.8344727 -3.96875l-1.375 -0.25q0.234375 -0.8125 0.796875 -1.203125q0.5625 -0.40625 1.671875 -0.40625q1.015625 0 1.5 0.234375q0.5 0.234375 0.703125 0.609375q0.203125 0.359375 0.203125 1.34375l-0.015625 1.765625q0 0.75 0.0625 1.109375q0.078125 0.359375 0.28125 0.765625l-1.5 0q-0.0625 -0.15625 -0.140625 -0.453125q-0.03125 -0.125 -0.046875 -0.171875q-0.390625 0.375 -0.84375 0.5625q-0.4375 0.1875 -0.9375 0.1875q-0.875 0 -1.390625 -0.46875q-0.5 -0.484375 -0.5 -1.21875q0 -0.484375 0.234375 -0.859375q0.234375 -0.375 0.640625 -0.578125q0.421875 -0.203125 1.203125 -0.359375q1.0625 -0.1875 1.46875 -0.359375l0 -0.15625q0 -0.4375 -0.21875 -0.609375q-0.21875 -0.1875 -0.8125 -0.1875q-0.390625 0 -0.625 0.15625q-0.21875 0.15625 -0.359375 0.546875zm2.015625 1.234375q-0.296875 0.09375 -0.921875 0.234375q-0.625 0.125 -0.8125 0.25q-0.296875 0.21875 -0.296875 0.53125q0 0.328125 0.234375 0.5625q0.234375 0.21875 0.59375 0.21875q0.40625 0 0.78125 -0.265625q0.28125 -0.203125 0.359375 -0.5q0.0625 -0.1875 0.0625 -0.734375l0 -0.296875zm7.9733887 2.734375l-1.515625 0l0 -2.90625q0 -0.921875 -0.09375 -1.1875q-0.09375 -0.28125 -0.3125 -0.421875q-0.21875 -0.15625 -0.53125 -0.15625q-0.390625 0 -0.703125 0.21875q-0.3125 0.203125 -0.4375 0.5625q-0.109375 0.34375 -0.109375 1.3125l0 2.578125l-1.5 0l0 -5.703125l1.40625 0l0 0.84375q0.734375 -0.96875 1.875 -0.96875q0.5 0 0.90625 0.1875q0.421875 0.171875 0.625 0.453125q0.21875 0.265625 0.296875 0.625q0.09375 0.359375 0.09375 1.015625l0 3.546875zm6.2904663 -4.015625l-1.484375 0.265625q-0.078125 -0.4375 -0.34375 -0.65625q-0.265625 -0.234375 -0.6875 -0.234375q-0.5625 0 -0.90625 0.390625q-0.328125 0.375 -0.328125 1.296875q0 1.015625 0.328125 1.4375q0.34375 0.421875 0.921875 0.421875q0.4375 0 0.703125 -0.25q0.28125 -0.25 0.390625 -0.84375l1.484375 0.25q-0.234375 1.03125 -0.890625 1.546875q-0.65625 0.515625 -1.75 0.515625q-1.265625 0 -2.015625 -0.78125q-0.734375 -0.796875 -0.734375 -2.1875q0 -1.421875 0.75 -2.203125q0.75 -0.78125 2.015625 -0.78125q1.046875 0 1.65625 0.453125q0.625 0.4375 0.890625 1.359375zm2.4577637 -3.859375l0 2.890625q0.734375 -0.84375 1.75 -0.84375q0.515625 0 0.921875 0.1875q0.421875 0.1875 0.640625 0.5q0.21875 0.296875 0.296875 0.671875q0.078125 0.359375 0.078125 1.125l0 3.34375l-1.515625 0l0 -3.015625q0 -0.890625 -0.09375 -1.125q-0.078125 -0.25 -0.296875 -0.390625q-0.21875 -0.140625 -0.546875 -0.140625q-0.375 0 -0.671875 0.1875q-0.296875 0.171875 -0.4375 0.546875q-0.125 0.359375 -0.125 1.078125l0 2.859375l-1.515625 0l0 -7.875l1.515625 0z" fill-rule="nonzero"></path><path fill="#000000" fill-opacity="0.0" d="m378.8399 565.33594l58.362183 0l0 44.661438l-58.362183 0z" fill-rule="nonzero"></path><path fill="#ff0000" d="m389.13678 592.256l0 -13.59375l2.75 0l0 13.59375l-2.75 0zm5.2926636 0l0 -13.59375l2.671875 0l5.578125 9.078125l0 -9.078125l2.546875 0l0 13.59375l-2.765625 0l-5.46875 -8.875l0 8.875l-2.5625 0zm13.363586 0l0 -13.59375l2.75 0l0 13.59375l-2.75 0zm8.323914 0l0 -11.296875l-4.03125 0l0 -2.296875l10.8125 0l0 2.296875l-4.03125 0l0 11.296875l-2.75 0z" fill-rule="nonzero"></path><path fill="#000000" fill-opacity="0.0" d="m378.8399 406.48557l58.362183 0l0 44.661407l-58.362183 0z" fill-rule="nonzero"></path><path fill="#000000" d="m389.2149 419.8118l5.015625 0q1.703125 0 2.59375 0.25q1.1875 0.359375 2.046875 1.265625q0.859375 0.890625 1.296875 2.203125q0.453125 1.296875 0.453125 3.203125q0 1.6875 -0.421875 2.890625q-0.515625 1.484375 -1.453125 2.40625q-0.71875 0.703125 -1.9375 1.09375q-0.90625 0.28125 -2.421875 0.28125l-5.171875 0l0 -13.59375zm2.75 2.296875l0 9.0l2.046875 0q1.140625 0 1.65625 -0.125q0.671875 -0.171875 1.109375 -0.5625q0.4375 -0.40625 0.71875 -1.3125q0.28125 -0.921875 0.28125 -2.5q0 -1.578125 -0.28125 -2.421875q-0.28125 -0.84375 -0.78125 -1.3125q-0.5 -0.46875 -1.265625 -0.640625q-0.578125 -0.125 -2.25 -0.125l-1.234375 0zm10.722931 11.296875l0 -13.59375l10.09375 0l0 2.296875l-7.34375 0l0 3.015625l6.828125 0l0 2.28125l-6.828125 0l0 3.703125l7.609375 0l0 2.296875l-10.359375 0zm15.927948 0l-4.875 -13.59375l2.984375 0l3.4375 10.0625l3.328125 -10.0625l2.921875 0l-4.875 13.59375l-2.921875 0z" fill-rule="nonzero"></path><path fill="#000000" fill-opacity="0.0" d="m378.8399 256.73752l58.362183 0l0 44.661438l-58.362183 0z" fill-rule="nonzero"></path><path fill="#000000" d="m389.2149 270.06378l5.015625 0q1.703125 0 2.59375 0.25q1.1875 0.359375 2.046875 1.265625q0.859375 0.890625 1.296875 2.203125q0.453125 1.296875 0.453125 3.203125q0 1.6875 -0.421875 2.890625q-0.515625 1.484375 -1.453125 2.40625q-0.71875 0.703125 -1.9375 1.09375q-0.90625 0.28125 -2.421875 0.28125l-5.171875 0l0 -13.59375zm2.75 2.296875l0 9.0l2.046875 0q1.140625 0 1.65625 -0.125q0.671875 -0.171875 1.109375 -0.5625q0.4375 -0.40625 0.71875 -1.3125q0.28125 -0.921875 0.28125 -2.5q0 -1.578125 -0.28125 -2.421875q-0.28125 -0.84375 -0.78125 -1.3125q-0.5 -0.46875 -1.265625 -0.640625q-0.578125 -0.125 -2.25 -0.125l-1.234375 0zm10.722931 11.296875l0 -13.59375l10.09375 0l0 2.296875l-7.34375 0l0 3.015625l6.828125 0l0 2.28125l-6.828125 0l0 3.703125l7.609375 0l0 2.296875l-10.359375 0zm15.927948 0l-4.875 -13.59375l2.984375 0l3.4375 10.0625l3.328125 -10.0625l2.921875 0l-4.875 13.59375l-2.921875 0z" fill-rule="nonzero"></path><path fill="#000000" fill-opacity="0.0" d="m378.8399 92.18635l58.362183 0l0 44.661415l-58.362183 0z" fill-rule="nonzero"></path><path fill="#000000" d="m389.2149 105.512596l5.015625 0q1.703125 0 2.59375 0.25q1.1875 0.359375 2.046875 1.265625q0.859375 0.890625 1.296875 2.203125q0.453125 1.296875 0.453125 3.203125q0 1.6875 -0.421875 2.890625q-0.515625 1.484375 -1.453125 2.40625q-0.71875 0.703125 -1.9375 1.09375q-0.90625 0.28125 -2.421875 0.28125l-5.171875 0l0 -13.59375zm2.75 2.296875l0 9.0l2.046875 0q1.140625 0 1.65625 -0.125q0.671875 -0.171875 1.109375 -0.5625q0.4375 -0.40625 0.71875 -1.3125q0.28125 -0.921875 0.28125 -2.5q0 -1.578125 -0.28125 -2.421875q-0.28125 -0.84375 -0.78125 -1.3125q-0.5 -0.46875 -1.265625 -0.640625q-0.578125 -0.125 -2.25 -0.125l-1.234375 0zm10.722931 11.296875l0 -13.59375l10.09375 0l0 2.296875l-7.34375 0l0 3.015625l6.828125 0l0 2.28125l-6.828125 0l0 3.703125l7.609375 0l0 2.296875l-10.359375 0zm15.927948 0l-4.875 -13.59375l2.984375 0l3.4375 10.0625l3.328125 -10.0625l2.921875 0l-4.875 13.59375l-2.921875 0z" fill-rule="nonzero"></path><path fill="#000000" fill-opacity="0.0" d="m623.52234 192.96588l89.25983 0l0 44.661423l-89.25983 0z" fill-rule="nonzero"></path><path fill="#9900ff" d="m633.8661 219.88588l0 -13.59375l4.109375 0l2.46875 9.265625l2.4375 -9.265625l4.125 0l0 13.59375l-2.546875 0l0 -10.703125l-2.703125 10.703125l-2.640625 0l-2.703125 -10.703125l0 10.703125l-2.546875 0zm27.837646 0l-2.984375 0l-1.1875 -3.09375l-5.4375 0l-1.125 3.09375l-2.90625 0l5.296875 -13.59375l2.90625 0l5.4375 13.59375zm-5.046875 -5.375l-1.875 -5.046875l-1.84375 5.046875l3.71875 0zm6.1760864 5.375l0 -13.59375l2.75 0l0 13.59375l-2.75 0zm5.2926636 0l0 -13.59375l2.671875 0l5.578125 9.078125l0 -9.078125l2.546875 0l0 13.59375l-2.765625 0l-5.46875 -8.875l0 8.875l-2.5625 0zm16.504211 0l0 -11.296875l-4.03125 0l0 -2.296875l10.8125 0l0 2.296875l-4.03125 0l0 11.296875l-2.75 0z" fill-rule="nonzero"></path></g></svg>

